# xmcd
#
# Track frame offsets:
#	150
#	15127
#	27042
#	37640
#	52773
#	68639
#	88149
#	107738
#	120017
#	135174
#	147045
#	160725
#	172393
#	184729
#	196344
#	210602
#	227469
#	237011
#	249249
#	267856
#	280098
#	296076
#
# Disc length: 4113 seconds
#
# Revision: 1
# Processed by: cddbd v1.5.2PL0 Copyright (c) Steve Scherf et al.
# Submitted via: audiograbber 1.83.01
#
DISCID=11100f16
DTITLE=ELBA RAMALHO - FORRÓ ESPECIAL
DYEAR=1900
DGENRE=FORRÓ
TTITLE0=A MÚSICA DO NOSSO AMOR
TTITLE1=AGORA É SUA VEZ
TTITLE2=AMOR COM CAFÉ
TTITLE3=BATE CORAÇÃO
TTITLE4=BODOCONGÓ
TTITLE5=CALDEIRÃO DOS MITOS
TTITLE6=CORAÇÃO DA GENTE
TTITLE7=DO JEITO QUE A GENTE GOSTA
TTITLE8=DOIDA
TTITLE9=EU QUERO MEU AMOR
TTITLE10=FOLIA BRASILEIRA
TTITLE11=FORRÓ DO POEIRÃO
TTITLE12=FORRÓ TEMPERADO
TTITLE13=IMBALANÇA
TTITLE14=JOGO DE CINTURA
TTITLE15=MEXE... MEXE, FUNGA... FUNGA
TTITLE16=NÃO SONHO MAIS
TTITLE17=NO SOM DA SANFONA
TTITLE18=ONDE TU TÁ NENÉM
TTITLE19=QUE NEM VEM-VEM
TTITLE20=REMEXER
TTITLE21=TEMPORAL
EXTD=
EXTT0=
EXTT1=
EXTT2=
EXTT3=
EXTT4=
EXTT5=
EXTT6=
EXTT7=
EXTT8=
EXTT9=
EXTT10=
EXTT11=
EXTT12=
EXTT13=
EXTT14=
EXTT15=
EXTT16=
EXTT17=
EXTT18=
EXTT19=
EXTT20=
EXTT21=
PLAYORDER=
